<?xml version="1.0" encoding="UTF-8"?>
<!DOCTYPE svg PUBLIC "-//W3C//DTD SVG 1.1//EN" "http://www.w3.org/Graphics/SVG/1.1/DTD/svg11.dtd">
<svg xmlns="http://www.w3.org/2000/svg" version="1.1" width="500px" height="500px" style="shape-rendering:geometricPrecision; text-rendering:geometricPrecision; image-rendering:optimizeQuality; fill-rule:evenodd; clip-rule:evenodd" xmlns:xlink="http://www.w3.org/1999/xlink">
<g><path style="opacity:0.502" fill="#4b647a" d="M 53.5,76.5 C 52.6868,77.6527 51.6868,77.6527 50.5,76.5C 49.6143,77.325 49.281,78.325 49.5,79.5C 48.5207,78.2347 47.5207,76.9014 46.5,75.5C 49.1411,74.1644 51.4745,74.4977 53.5,76.5 Z"/></g>
<g><path style="opacity:1" fill="#18445c" d="M 450.5,80.5 C 449.11,81.8993 448.11,83.5659 447.5,85.5C 446.099,88.6339 444.432,91.6339 442.5,94.5C 440.75,95.6594 439.75,97.326 439.5,99.5C 438.431,101.969 437.098,104.302 435.5,106.5C 433.75,107.659 432.75,109.326 432.5,111.5C 431.099,114.634 429.432,117.634 427.5,120.5C 425.896,121.287 425.229,122.62 425.5,124.5C 423.952,124.821 423.285,125.821 423.5,127.5C 422.525,129.795 421.192,131.795 419.5,133.5C 418.326,134.514 417.66,135.847 417.5,137.5C 416.094,137.973 415.427,138.973 415.5,140.5C 414.083,143.669 412.417,146.669 410.5,149.5C 409.094,149.973 408.427,150.973 408.5,152.5C 407.416,155.004 406.083,157.337 404.5,159.5C 402.412,161.336 401.079,163.669 400.5,166.5C 399.069,169.701 397.403,172.701 395.5,175.5C 394.094,175.973 393.427,176.973 393.5,178.5C 392.099,181.634 390.432,184.634 388.5,187.5C 386.75,188.659 385.75,190.326 385.5,192.5C 384.42,194.996 383.086,197.33 381.5,199.5C 379.331,201.34 377.998,203.674 377.5,206.5C 376.167,208.833 374.833,211.167 373.5,213.5C 372.094,213.973 371.427,214.973 371.5,216.5C 369.89,220.1 367.89,223.434 365.5,226.5C 364.326,227.514 363.66,228.847 363.5,230.5C 359.656,238.199 355.322,245.532 350.5,252.5C 348.75,253.659 347.75,255.326 347.5,257.5C 346.099,260.634 344.432,263.634 342.5,266.5C 340.896,267.287 340.229,268.62 340.5,270.5C 338.952,270.821 338.285,271.821 338.5,273.5C 337.525,275.795 336.192,277.795 334.5,279.5C 333.326,280.514 332.66,281.847 332.5,283.5C 331.331,286.511 329.664,289.178 327.5,291.5C 326.326,292.514 325.66,293.847 325.5,295.5C 324.094,295.973 323.427,296.973 323.5,298.5C 322.18,301.14 320.847,303.807 319.5,306.5C 317.178,307.802 315.845,309.802 315.5,312.5C 314.069,315.701 312.403,318.701 310.5,321.5C 309.094,321.973 308.427,322.973 308.5,324.5C 307.099,327.634 305.432,330.634 303.5,333.5C 301.75,334.659 300.75,336.326 300.5,338.5C 299.42,340.996 298.086,343.33 296.5,345.5C 294.331,347.34 292.998,349.674 292.5,352.5C 291.167,354.833 289.833,357.167 288.5,359.5C 287.094,359.973 286.427,360.973 286.5,362.5C 285,366.173 283,369.506 280.5,372.5C 279.326,373.514 278.66,374.847 278.5,376.5C 277.331,379.511 275.664,382.178 273.5,384.5C 271.412,386.336 270.079,388.669 269.5,391.5C 268.416,394.004 267.083,396.337 265.5,398.5C 264.11,399.899 263.11,401.566 262.5,403.5C 259.253,410.88 255.253,417.88 250.5,424.5C 248.663,422.824 247.33,420.824 246.5,418.5C 245.921,415.669 244.588,413.336 242.5,411.5C 240,408.506 238,405.173 236.5,401.5C 236.573,399.973 235.906,398.973 234.5,398.5C 227.569,386.969 220.902,375.302 214.5,363.5C 214.573,361.973 213.906,360.973 212.5,360.5C 210.597,357.701 208.931,354.701 207.5,351.5C 206.921,348.669 205.588,346.336 203.5,344.5C 201.836,341.841 200.17,339.175 198.5,336.5C 198.34,334.847 197.674,333.514 196.5,332.5C 194.917,330.337 193.584,328.004 192.5,325.5C 192.573,323.973 191.906,322.973 190.5,322.5C 190.573,320.973 189.906,319.973 188.5,319.5C 187.471,317.483 186.471,315.483 185.5,313.5C 184.617,310.296 182.95,307.629 180.5,305.5C 179.89,304.609 179.557,303.609 179.5,302.5C 178.575,298.728 176.575,295.728 173.5,293.5C 168.425,286.36 164.091,278.693 160.5,270.5C 159.89,268.566 158.89,266.899 157.5,265.5C 155.412,263.664 154.079,261.331 153.5,258.5C 153.155,255.802 151.822,253.802 149.5,252.5C 147.568,249.634 145.901,246.634 144.5,243.5C 144.34,241.847 143.674,240.514 142.5,239.5C 140.412,237.664 139.079,235.331 138.5,232.5C 137.66,230.147 136.326,228.147 134.5,226.5C 132.975,224.784 131.975,222.784 131.5,220.5C 130.617,217.296 128.95,214.629 126.5,212.5C 124.902,210.302 123.569,207.969 122.5,205.5C 122.25,203.326 121.25,201.659 119.5,200.5C 117.929,198.365 116.596,196.032 115.5,193.5C 115.25,191.326 114.25,189.659 112.5,188.5C 110.583,185.669 108.917,182.669 107.5,179.5C 107.155,176.802 105.822,174.802 103.5,173.5C 101.5,170.167 99.5,166.833 97.5,163.5C 97.7709,161.62 97.1042,160.287 95.5,159.5C 93.5675,156.634 91.9009,153.634 90.5,150.5C 90.3404,148.847 89.6737,147.514 88.5,146.5C 86.336,144.178 84.6693,141.511 83.5,138.5C 83.573,136.973 82.9063,135.973 81.5,135.5C 79.264,132.033 77.264,128.366 75.5,124.5C 74.8897,122.566 73.8897,120.899 72.5,119.5C 70.9019,117.302 69.5686,114.969 68.5,112.5C 68.2503,110.326 67.2503,108.659 65.5,107.5C 63.1101,104.434 61.1101,101.1 59.5,97.5C 59.3404,95.847 58.6737,94.5137 57.5,93.5C 55.412,91.6644 54.0787,89.3311 53.5,86.5C 53.573,84.9731 52.9063,83.9731 51.5,83.5C 51.573,81.9731 50.9063,80.9731 49.5,80.5C 49.5,80.1667 49.5,79.8333 49.5,79.5C 49.281,78.325 49.6143,77.325 50.5,76.5C 51.6868,77.6527 52.6868,77.6527 53.5,76.5C 63.4811,79.3233 73.1477,82.99 82.5,87.5C 83.172,88.2674 84.0053,88.9341 85,89.5C 85.3988,89.2716 85.5654,88.9382 85.5,88.5C 88.5738,89.3024 91.5738,90.3024 94.5,91.5C 95.1223,93.335 96.4556,94.5017 98.5,95C 101,95.3747 103.333,96.2081 105.5,97.5C 106.107,97.3764 106.44,97.0431 106.5,96.5C 111.617,98.2259 116.617,100.226 121.5,102.5C 122.172,103.267 123.005,103.934 124,104.5C 124.399,104.272 124.565,103.938 124.5,103.5C 126.579,103.971 128.579,104.637 130.5,105.5C 132.625,108.075 135.458,109.742 139,110.5C 139.765,110.43 140.265,110.097 140.5,109.5C 141.708,110.234 143.041,110.567 144.5,110.5C 146.168,112.858 148.501,114.524 151.5,115.5C 152.107,115.376 152.44,115.043 152.5,114.5C 152.833,114.5 153.167,114.5 153.5,114.5C 154.784,116.614 156.784,117.614 159.5,117.5C 159.833,117.5 160.167,117.5 160.5,117.5C 161.172,118.267 162.005,118.934 163,119.5C 163.399,119.272 163.565,118.938 163.5,118.5C 170.218,120.963 176.884,123.63 183.5,126.5C 183.918,127.222 184.584,127.722 185.5,128C 171.327,128.169 157.327,128.669 143.5,129.5C 143.328,130.492 143.662,131.158 144.5,131.5C 148.402,137.63 152.069,143.963 155.5,150.5C 155.427,152.027 156.094,153.027 157.5,153.5C 159.432,156.366 161.099,159.366 162.5,162.5C 162.75,164.674 163.75,166.341 165.5,167.5C 167.025,169.216 168.025,171.216 168.5,173.5C 169.34,175.853 170.674,177.853 172.5,179.5C 174.432,182.366 176.099,185.366 177.5,188.5C 177.75,190.674 178.75,192.341 180.5,193.5C 182.098,195.698 183.431,198.031 184.5,200.5C 185.079,203.331 186.412,205.664 188.5,207.5C 192.921,213.334 196.588,219.668 199.5,226.5C 199.427,228.027 200.094,229.027 201.5,229.5C 204.526,233.884 207.193,238.551 209.5,243.5C 209.427,245.027 210.094,246.027 211.5,246.5C 213.432,249.366 215.099,252.366 216.5,255.5C 216.75,257.674 217.75,259.341 219.5,260.5C 224.271,267.039 228.271,274.039 231.5,281.5C 231.75,283.674 232.75,285.341 234.5,286.5C 236.925,289.589 238.925,292.922 240.5,296.5C 240.66,298.153 241.326,299.486 242.5,300.5C 244.164,303.159 245.83,305.825 247.5,308.5C 247.66,310.153 248.326,311.486 249.5,312.5C 250.272,311.306 251.272,310.306 252.5,309.5C 253.906,309.027 254.573,308.027 254.5,306.5C 254.975,304.216 255.975,302.216 257.5,300.5C 259.25,299.341 260.25,297.674 260.5,295.5C 261.901,292.366 263.568,289.366 265.5,286.5C 267.822,285.198 269.155,283.198 269.5,280.5C 270.079,277.669 271.412,275.336 273.5,273.5C 274.89,272.101 275.89,270.434 276.5,268.5C 279.729,261.039 283.729,254.039 288.5,247.5C 290.25,246.341 291.25,244.674 291.5,242.5C 292.901,239.366 294.568,236.366 296.5,233.5C 298.95,231.371 300.617,228.704 301.5,225.5C 302.11,223.566 303.11,221.899 304.5,220.5C 305.674,219.486 306.34,218.153 306.5,216.5C 307.901,213.366 309.568,210.366 311.5,207.5C 312.906,207.027 313.573,206.027 313.5,204.5C 315.234,200.7 317.234,197.034 319.5,193.5C 321.822,192.198 323.155,190.198 323.5,187.5C 324.917,184.331 326.583,181.331 328.5,178.5C 330.822,177.198 332.155,175.198 332.5,172.5C 333.41,169.008 335.076,166.008 337.5,163.5C 338.906,163.027 339.573,162.027 339.5,160.5C 339.975,158.216 340.975,156.216 342.5,154.5C 344.25,153.341 345.25,151.674 345.5,149.5C 346.901,146.366 348.568,143.366 350.5,140.5C 352.822,139.198 354.155,137.198 354.5,134.5C 354.328,133.508 354.662,132.842 355.5,132.5C 356.267,131.828 356.934,130.995 357.5,130C 343.167,129.667 328.833,129.333 314.5,129C 315.756,128.583 316.423,127.75 316.5,126.5C 321.073,125.421 325.407,123.754 329.5,121.5C 330.947,122.885 331.947,122.552 332.5,120.5C 332.833,120.5 333.167,120.5 333.5,120.5C 335.684,121.108 337.684,120.441 339.5,118.5C 350.17,113.332 361.17,108.999 372.5,105.5C 372.56,106.043 372.893,106.376 373.5,106.5C 375.858,105.846 377.525,104.513 378.5,102.5C 389.391,98.222 400.391,94.222 411.5,90.5C 411.435,90.9382 411.601,91.2716 412,91.5C 413.067,90.8095 414.234,90.3095 415.5,90C 416.756,89.5831 417.423,88.7498 417.5,87.5C 423.274,85.7788 428.94,83.7788 434.5,81.5C 436.684,82.1081 438.684,81.4414 440.5,79.5C 444.63,76.8962 448.964,75.5629 453.5,75.5C 452.725,77.3964 451.725,79.063 450.5,80.5 Z"/></g>
<g><path style="opacity:0.104" fill="#acb2bd" d="M 190.5,79.5 C 190.5,80.5 190.5,81.5 190.5,82.5C 187.833,81.5 187.833,80.5 190.5,79.5 Z"/></g>
<g><path style="opacity:0.698" fill="#465d74" d="M 190.5,79.5 C 231.167,79.5 271.833,79.5 312.5,79.5C 312.737,80.791 312.404,81.791 311.5,82.5C 271.67,81.5014 231.67,81.1681 191.5,81.5C 191.5,82.5 191.5,83.5 191.5,84.5C 190.662,84.1583 190.328,83.4916 190.5,82.5C 190.5,81.5 190.5,80.5 190.5,79.5 Z"/></g>
<g><path style="opacity:1" fill="#19445d" d="M 311.5,82.5 C 311.649,83.552 311.483,84.552 311,85.5C 306.144,92.5662 301.311,99.5662 296.5,106.5C 295.326,107.514 294.66,108.847 294.5,110.5C 292.925,114.078 290.925,117.411 288.5,120.5C 286.738,121.262 285.738,122.596 285.5,124.5C 284.331,127.511 282.664,130.178 280.5,132.5C 279.326,133.514 278.66,134.847 278.5,136.5C 276.86,139.149 275.193,141.816 273.5,144.5C 271.674,146.147 270.34,148.147 269.5,150.5C 266.516,157.805 262.516,164.472 257.5,170.5C 256.094,170.973 255.427,171.973 255.5,173.5C 254.52,176.116 253.02,178.449 251,180.5C 248.642,177.778 246.809,174.778 245.5,171.5C 245.25,169.326 244.25,167.659 242.5,166.5C 237.418,160.011 233.085,153.011 229.5,145.5C 229.573,143.973 228.906,142.973 227.5,142.5C 225.11,139.434 223.11,136.1 221.5,132.5C 221.573,130.973 220.906,129.973 219.5,129.5C 217.833,126.833 216.167,124.167 214.5,121.5C 214.25,119.326 213.25,117.659 211.5,116.5C 209.5,113.5 207.5,110.5 205.5,107.5C 205.771,105.62 205.104,104.287 203.5,103.5C 201.833,100.833 200.167,98.1667 198.5,95.5C 198.34,93.847 197.674,92.5137 196.5,91.5C 194.6,89.3805 192.934,87.0472 191.5,84.5C 191.5,83.5 191.5,82.5 191.5,81.5C 231.67,81.1681 271.67,81.5014 311.5,82.5 Z"/></g>
<g><path style="opacity:0.804" fill="#5c6f84" d="M 440.5,79.5 C 438.684,81.4414 436.684,82.1081 434.5,81.5C 436.102,79.9261 438.102,79.2594 440.5,79.5 Z"/></g>
<g><path style="opacity:0.09" fill="#8f97a6" d="M 49.5,80.5 C 50.9063,80.9731 51.573,81.9731 51.5,83.5C 50.0937,83.0269 49.427,82.0269 49.5,80.5 Z"/></g>
<g><path style="opacity:0.004" fill="#939cab" d="M 450.5,80.5 C 450.727,82.9328 449.727,84.5994 447.5,85.5C 448.11,83.5659 449.11,81.8993 450.5,80.5 Z"/></g>
<g><path style="opacity:0.227" fill="#838f9f" d="M 51.5,83.5 C 52.9063,83.9731 53.573,84.9731 53.5,86.5C 52.0937,86.0269 51.427,85.0269 51.5,83.5 Z"/></g>
<g><path style="opacity:0.043" fill="#8b96a5" d="M 82.5,87.5 C 83.791,87.2627 84.791,87.596 85.5,88.5C 85.5654,88.9382 85.3988,89.2716 85,89.5C 84.0053,88.9341 83.172,88.2674 82.5,87.5 Z"/></g>
<g><path style="opacity:0.486" fill="#738395" d="M 417.5,87.5 C 417.423,88.7498 416.756,89.5831 415.5,90C 414.234,90.3095 413.067,90.8095 412,91.5C 411.601,91.2716 411.435,90.9382 411.5,90.5C 413.25,89.1302 415.25,88.1302 417.5,87.5 Z"/></g>
<g><path style="opacity:0.298" fill="#9ca6b2" d="M 196.5,91.5 C 197.674,92.5137 198.34,93.847 198.5,95.5C 196.896,94.713 196.229,93.3797 196.5,91.5 Z"/></g>
<g><path style="opacity:0.69" fill="#51697e" d="M 94.5,91.5 C 98.4562,93.477 102.456,95.1436 106.5,96.5C 106.44,97.0431 106.107,97.3764 105.5,97.5C 103.333,96.2081 101,95.3747 98.5,95C 96.4556,94.5017 95.1223,93.335 94.5,91.5 Z"/></g>
<g><path style="opacity:0.286" fill="#969fad" d="M 57.5,93.5 C 58.6737,94.5137 59.3404,95.847 59.5,97.5C 57.8958,96.713 57.2291,95.3797 57.5,93.5 Z"/></g>
<g><path style="opacity:0.137" fill="#7a8698" d="M 442.5,94.5 C 442.25,96.674 441.25,98.3406 439.5,99.5C 439.75,97.326 440.75,95.6594 442.5,94.5 Z"/></g>
<g><path style="opacity:0.49" fill="#7f8b9c" d="M 121.5,102.5 C 122.791,102.263 123.791,102.596 124.5,103.5C 124.565,103.938 124.399,104.272 124,104.5C 123.005,103.934 122.172,103.267 121.5,102.5 Z"/></g>
<g><path style="opacity:0.049" fill="#afb5bf" d="M 203.5,103.5 C 205.104,104.287 205.771,105.62 205.5,107.5C 204.326,106.486 203.66,105.153 203.5,103.5 Z"/></g>
<g><path style="opacity:0.824" fill="#607487" d="M 378.5,102.5 C 377.525,104.513 375.858,105.846 373.5,106.5C 372.893,106.376 372.56,106.043 372.5,105.5C 374.25,104.13 376.25,103.13 378.5,102.5 Z"/></g>
<g><path style="opacity:0.008" fill="#7a8698" d="M 435.5,106.5 C 435.25,108.674 434.25,110.341 432.5,111.5C 432.75,109.326 433.75,107.659 435.5,106.5 Z"/></g>
<g><path style="opacity:0.522" fill="#50677c" d="M 130.5,105.5 C 133.833,106.833 137.167,108.167 140.5,109.5C 140.265,110.097 139.765,110.43 139,110.5C 135.458,109.742 132.625,108.075 130.5,105.5 Z"/></g>
<g><path style="opacity:0.008" fill="#8c95a5" d="M 296.5,106.5 C 296.771,108.38 296.104,109.713 294.5,110.5C 294.66,108.847 295.326,107.514 296.5,106.5 Z"/></g>
<g><path style="opacity:0.188" fill="#778597" d="M 65.5,107.5 C 67.2503,108.659 68.2503,110.326 68.5,112.5C 66.7497,111.341 65.7497,109.674 65.5,107.5 Z"/></g>
<g><path style="opacity:0.816" fill="#566c80" d="M 144.5,110.5 C 147.434,111.467 150.1,112.8 152.5,114.5C 152.44,115.043 152.107,115.376 151.5,115.5C 148.501,114.524 146.168,112.858 144.5,110.5 Z"/></g>
<g><path style="opacity:0.529" fill="#617488" d="M 153.5,114.5 C 155.819,114.992 157.819,115.992 159.5,117.5C 156.784,117.614 154.784,116.614 153.5,114.5 Z"/></g>
<g><path style="opacity:0.502" fill="#778396" d="M 160.5,117.5 C 161.791,117.263 162.791,117.596 163.5,118.5C 163.565,118.938 163.399,119.272 163,119.5C 162.005,118.934 161.172,118.267 160.5,117.5 Z"/></g>
<g><path style="opacity:0.106" fill="#8994a3" d="M 211.5,116.5 C 213.25,117.659 214.25,119.326 214.5,121.5C 212.75,120.341 211.75,118.674 211.5,116.5 Z"/></g>
<g><path style="opacity:0.769" fill="#6a7b8e" d="M 339.5,118.5 C 337.684,120.441 335.684,121.108 333.5,120.5C 335.109,119.229 336.942,118.229 339,117.5C 339.399,117.728 339.565,118.062 339.5,118.5 Z"/></g>
<g><path style="opacity:0.208" fill="#8892a2" d="M 72.5,119.5 C 73.8897,120.899 74.8897,122.566 75.5,124.5C 73.2729,123.599 72.2729,121.933 72.5,119.5 Z"/></g>
<g><path style="opacity:0.604" fill="#748495" d="M 332.5,120.5 C 331.947,122.552 330.947,122.885 329.5,121.5C 330.609,121.443 331.609,121.11 332.5,120.5 Z"/></g>
<g><path style="opacity:0.082" fill="#7b8798" d="M 288.5,120.5 C 288.262,122.404 287.262,123.738 285.5,124.5C 285.738,122.596 286.738,121.262 288.5,120.5 Z"/></g>
<g><path style="opacity:0.004" fill="#b8bcc6" d="M 427.5,120.5 C 427.34,122.153 426.674,123.486 425.5,124.5C 425.229,122.62 425.896,121.287 427.5,120.5 Z"/></g>
<g><path style="opacity:0.259" fill="#7f8c9d" d="M 425.5,124.5 C 425.068,125.71 424.401,126.71 423.5,127.5C 423.285,125.821 423.952,124.821 425.5,124.5 Z"/></g>
<g><path style="opacity:0.817" fill="#405e74" d="M 187.5,127.5 C 173.205,129.483 158.538,130.15 143.5,129.5C 157.327,128.669 171.327,128.169 185.5,128C 184.584,127.722 183.918,127.222 183.5,126.5C 183.435,126.062 183.601,125.728 184,125.5C 185.113,126.305 186.279,126.972 187.5,127.5 Z"/></g>
<g><path style="opacity:0.145" fill="#83899b" d="M 187.5,127.5 C 188.995,127.415 189.995,128.081 190.5,129.5C 175.005,130.167 159.672,130.833 144.5,131.5C 143.662,131.158 143.328,130.492 143.5,129.5C 158.538,130.15 173.205,129.483 187.5,127.5 Z"/></g>
<g><path style="opacity:0.146" fill="#808799" d="M 316.5,126.5 C 316.423,127.75 315.756,128.583 314.5,129C 328.833,129.333 343.167,129.667 357.5,130C 356.934,130.995 356.267,131.828 355.5,132.5C 341.19,130.842 326.523,129.842 311.5,129.5C 312.8,127.949 314.467,126.949 316.5,126.5 Z"/></g>
<g><path style="opacity:0.027" fill="#8892a2" d="M 219.5,129.5 C 220.906,129.973 221.573,130.973 221.5,132.5C 220.094,132.027 219.427,131.027 219.5,129.5 Z"/></g>
<g><path style="opacity:0.012" fill="#8892a2" d="M 280.5,132.5 C 280.771,134.38 280.104,135.713 278.5,136.5C 278.66,134.847 279.326,133.514 280.5,132.5 Z"/></g>
<g><path style="opacity:0.012" fill="#798597" d="M 419.5,133.5 C 419.771,135.38 419.104,136.713 417.5,137.5C 417.66,135.847 418.326,134.514 419.5,133.5 Z"/></g>
<g><path style="opacity:0.318" fill="#788698" d="M 354.5,134.5 C 354.155,137.198 352.822,139.198 350.5,140.5C 351.34,138.147 352.674,136.147 354.5,134.5 Z"/></g>
<g><path style="opacity:0.122" fill="#8c96a5" d="M 81.5,135.5 C 82.9063,135.973 83.573,136.973 83.5,138.5C 82.0937,138.027 81.427,137.027 81.5,135.5 Z"/></g>
<g><path style="opacity:0.196" fill="#9ba4b1" d="M 417.5,137.5 C 417.573,139.027 416.906,140.027 415.5,140.5C 415.427,138.973 416.094,137.973 417.5,137.5 Z"/></g>
<g><path style="opacity:0.129" fill="#768495" d="M 227.5,142.5 C 228.906,142.973 229.573,143.973 229.5,145.5C 228.094,145.027 227.427,144.027 227.5,142.5 Z"/></g>
<g><path style="opacity:0.008" fill="#838e9f" d="M 273.5,144.5 C 273.155,147.198 271.822,149.198 269.5,150.5C 270.34,148.147 271.674,146.147 273.5,144.5 Z"/></g>
<g><path style="opacity:0.4" fill="#7e8a9c" d="M 88.5,146.5 C 89.6737,147.514 90.3404,148.847 90.5,150.5C 88.8958,149.713 88.2291,148.38 88.5,146.5 Z"/></g>
<g><path style="opacity:0.373" fill="#8f9aa9" d="M 345.5,149.5 C 345.25,151.674 344.25,153.341 342.5,154.5C 342.75,152.326 343.75,150.659 345.5,149.5 Z"/></g>
<g><path style="opacity:0.4" fill="#969fad" d="M 155.5,150.5 C 156.906,150.973 157.573,151.973 157.5,153.5C 156.094,153.027 155.427,152.027 155.5,150.5 Z"/></g>
<g><path style="opacity:0.192" fill="#7f8b9c" d="M 410.5,149.5 C 410.573,151.027 409.906,152.027 408.5,152.5C 408.427,150.973 409.094,149.973 410.5,149.5 Z"/></g>
<g><path style="opacity:0.004" fill="#aab0bb" d="M 95.5,159.5 C 97.1042,160.287 97.7709,161.62 97.5,163.5C 96.3263,162.486 95.6596,161.153 95.5,159.5 Z"/></g>
<g><path style="opacity:0.373" fill="#768798" d="M 339.5,160.5 C 339.573,162.027 338.906,163.027 337.5,163.5C 337.427,161.973 338.094,160.973 339.5,160.5 Z"/></g>
<g><path style="opacity:0.051" fill="#8e98a6" d="M 404.5,159.5 C 404.002,162.326 402.669,164.66 400.5,166.5C 401.079,163.669 402.412,161.336 404.5,159.5 Z"/></g>
<g><path style="opacity:0.557" fill="#7e8a9c" d="M 162.5,162.5 C 164.25,163.659 165.25,165.326 165.5,167.5C 163.75,166.341 162.75,164.674 162.5,162.5 Z"/></g>
<g><path style="opacity:0.035" fill="#7b899b" d="M 242.5,166.5 C 244.25,167.659 245.25,169.326 245.5,171.5C 243.75,170.341 242.75,168.674 242.5,166.5 Z"/></g>
<g><path style="opacity:0.118" fill="#838e9e" d="M 257.5,170.5 C 257.573,172.027 256.906,173.027 255.5,173.5C 255.427,171.973 256.094,170.973 257.5,170.5 Z"/></g>
<g><path style="opacity:0.659" fill="#697c8e" d="M 332.5,172.5 C 332.155,175.198 330.822,177.198 328.5,178.5C 329.34,176.147 330.674,174.147 332.5,172.5 Z"/></g>
<g><path style="opacity:0.647" fill="#6f7f91" d="M 168.5,173.5 C 170.822,174.802 172.155,176.802 172.5,179.5C 170.674,177.853 169.34,175.853 168.5,173.5 Z"/></g>
<g><path style="opacity:0.075" fill="#8d98a7" d="M 103.5,173.5 C 105.822,174.802 107.155,176.802 107.5,179.5C 105.674,177.853 104.34,175.853 103.5,173.5 Z"/></g>
<g><path style="opacity:0.02" fill="#a7afba" d="M 395.5,175.5 C 395.573,177.027 394.906,178.027 393.5,178.5C 393.427,176.973 394.094,175.973 395.5,175.5 Z"/></g>
<g><path style="opacity:0.122" fill="#8993a3" d="M 388.5,187.5 C 388.25,189.674 387.25,191.341 385.5,192.5C 385.75,190.326 386.75,188.659 388.5,187.5 Z"/></g>
<g><path style="opacity:0.196" fill="#7d889a" d="M 112.5,188.5 C 114.25,189.659 115.25,191.326 115.5,193.5C 113.75,192.341 112.75,190.674 112.5,188.5 Z"/></g>
<g><path style="opacity:0.173" fill="#8995a4" d="M 177.5,188.5 C 179.25,189.659 180.25,191.326 180.5,193.5C 178.75,192.341 177.75,190.674 177.5,188.5 Z"/></g>
<g><path style="opacity:0.306" fill="#8792a2" d="M 323.5,187.5 C 323.155,190.198 321.822,192.198 319.5,193.5C 320.34,191.147 321.674,189.147 323.5,187.5 Z"/></g>
<g><path style="opacity:0.004" fill="#7d8999" d="M 381.5,199.5 C 380.921,202.331 379.588,204.664 377.5,206.5C 377.998,203.674 379.331,201.34 381.5,199.5 Z"/></g>
<g><path style="opacity:0.043" fill="#778496" d="M 119.5,200.5 C 121.25,201.659 122.25,203.326 122.5,205.5C 120.75,204.341 119.75,202.674 119.5,200.5 Z"/></g>
<g><path style="opacity:0.604" fill="#778496" d="M 184.5,200.5 C 186.669,202.34 188.002,204.674 188.5,207.5C 186.412,205.664 185.079,203.331 184.5,200.5 Z"/></g>
<g><path style="opacity:0.114" fill="#949caa" d="M 313.5,204.5 C 313.573,206.027 312.906,207.027 311.5,207.5C 311.427,205.973 312.094,204.973 313.5,204.5 Z"/></g>
<g><path style="opacity:0.008" fill="#b0b6c0" d="M 373.5,213.5 C 373.573,215.027 372.906,216.027 371.5,216.5C 371.427,214.973 372.094,213.973 373.5,213.5 Z"/></g>
<g><path style="opacity:0.412" fill="#768496" d="M 306.5,216.5 C 306.34,218.153 305.674,219.486 304.5,220.5C 304.229,218.62 304.896,217.287 306.5,216.5 Z"/></g>
<g><path style="opacity:0.588" fill="#758496" d="M 126.5,212.5 C 128.95,214.629 130.617,217.296 131.5,220.5C 129.05,218.371 127.383,215.704 126.5,212.5 Z"/></g>
<g><path style="opacity:0.255" fill="#8794a3" d="M 199.5,226.5 C 200.906,226.973 201.573,227.973 201.5,229.5C 200.094,229.027 199.427,228.027 199.5,226.5 Z"/></g>
<g><path style="opacity:0.004" fill="#919aa9" d="M 365.5,226.5 C 365.771,228.38 365.104,229.713 363.5,230.5C 363.66,228.847 364.326,227.514 365.5,226.5 Z"/></g>
<g><path style="opacity:0.349" fill="#798698" d="M 134.5,226.5 C 136.326,228.147 137.66,230.147 138.5,232.5C 136.178,231.198 134.845,229.198 134.5,226.5 Z"/></g>
<g><path style="opacity:0.18" fill="#909aa9" d="M 301.5,225.5 C 300.617,228.704 298.95,231.371 296.5,233.5C 297.383,230.296 299.05,227.629 301.5,225.5 Z"/></g>
<g><path style="opacity:0.333" fill="#8e98a7" d="M 142.5,239.5 C 143.674,240.514 144.34,241.847 144.5,243.5C 142.896,242.713 142.229,241.38 142.5,239.5 Z"/></g>
<g><path style="opacity:0.18" fill="#7e8a9b" d="M 291.5,242.5 C 291.25,244.674 290.25,246.341 288.5,247.5C 288.75,245.326 289.75,243.659 291.5,242.5 Z"/></g>
<g><path style="opacity:0.153" fill="#9099a8" d="M 209.5,243.5 C 210.906,243.973 211.573,244.973 211.5,246.5C 210.094,246.027 209.427,245.027 209.5,243.5 Z"/></g>
<g><path style="opacity:0.004" fill="#778395" d="M 350.5,252.5 C 350.727,254.933 349.727,256.599 347.5,257.5C 347.75,255.326 348.75,253.659 350.5,252.5 Z"/></g>
<g><path style="opacity:0.537" fill="#7f8c9d" d="M 149.5,252.5 C 151.822,253.802 153.155,255.802 153.5,258.5C 151.674,256.853 150.34,254.853 149.5,252.5 Z"/></g>
<g><path style="opacity:0.584" fill="#7a8799" d="M 216.5,255.5 C 218.25,256.659 219.25,258.326 219.5,260.5C 217.75,259.341 216.75,257.674 216.5,255.5 Z"/></g>
<g><path style="opacity:0.247" fill="#808c9d" d="M 157.5,265.5 C 158.89,266.899 159.89,268.566 160.5,270.5C 158.273,269.599 157.273,267.933 157.5,265.5 Z"/></g>
<g><path style="opacity:0.008" fill="#b2b7c2" d="M 342.5,266.5 C 342.34,268.153 341.674,269.486 340.5,270.5C 340.229,268.62 340.896,267.287 342.5,266.5 Z"/></g>
<g><path style="opacity:0.251" fill="#8c98a6" d="M 276.5,268.5 C 275.89,270.434 274.89,272.101 273.5,273.5C 273.273,271.067 274.273,269.401 276.5,268.5 Z"/></g>
<g><path style="opacity:0.286" fill="#7b8899" d="M 340.5,270.5 C 340.068,271.71 339.401,272.71 338.5,273.5C 338.285,271.821 338.952,270.821 340.5,270.5 Z"/></g>
<g><path style="opacity:0.561" fill="#7b899a" d="M 269.5,280.5 C 269.155,283.198 267.822,285.198 265.5,286.5C 266.34,284.147 267.674,282.147 269.5,280.5 Z"/></g>
<g><path style="opacity:0.02" fill="#778396" d="M 334.5,279.5 C 334.771,281.38 334.104,282.713 332.5,283.5C 332.66,281.847 333.326,280.514 334.5,279.5 Z"/></g>
<g><path style="opacity:0.216" fill="#838e9f" d="M 231.5,281.5 C 233.727,282.401 234.727,284.067 234.5,286.5C 232.75,285.341 231.75,283.674 231.5,281.5 Z"/></g>
<g><path style="opacity:0.004" fill="#919aa9" d="M 327.5,291.5 C 327.771,293.38 327.104,294.713 325.5,295.5C 325.66,293.847 326.326,292.514 327.5,291.5 Z"/></g>
<g><path style="opacity:0.325" fill="#959fac" d="M 260.5,295.5 C 260.25,297.674 259.25,299.341 257.5,300.5C 257.75,298.326 258.75,296.659 260.5,295.5 Z"/></g>
<g><path style="opacity:0.965" fill="#556a7f" d="M 173.5,293.5 C 176.575,295.728 178.575,298.728 179.5,302.5C 176.723,300.049 174.723,297.049 173.5,293.5 Z"/></g>
<g><path style="opacity:0.231" fill="#788698" d="M 325.5,295.5 C 325.573,297.027 324.906,298.027 323.5,298.5C 323.427,296.973 324.094,295.973 325.5,295.5 Z"/></g>
<g><path style="opacity:0.043" fill="#a6acb8" d="M 240.5,296.5 C 242.104,297.287 242.771,298.62 242.5,300.5C 241.326,299.486 240.66,298.153 240.5,296.5 Z"/></g>
<g><path style="opacity:0.337" fill="#7d8d9c" d="M 254.5,306.5 C 254.573,308.027 253.906,309.027 252.5,309.5C 252.427,307.973 253.094,306.973 254.5,306.5 Z"/></g>
<g><path style="opacity:0.063" fill="#8a95a4" d="M 319.5,306.5 C 318.66,308.853 317.326,310.853 315.5,312.5C 315.845,309.802 317.178,307.802 319.5,306.5 Z"/></g>
<g><path style="opacity:0.29" fill="#939dab" d="M 247.5,308.5 C 249.104,309.287 249.771,310.62 249.5,312.5C 248.326,311.486 247.66,310.153 247.5,308.5 Z"/></g>
<g><path style="opacity:0.541" fill="#7c8a9b" d="M 180.5,305.5 C 182.95,307.629 184.617,310.296 185.5,313.5C 183.05,311.371 181.383,308.704 180.5,305.5 Z"/></g>
<g><path style="opacity:0.09" fill="#8f98a8" d="M 188.5,319.5 C 189.906,319.973 190.573,320.973 190.5,322.5C 189.094,322.027 188.427,321.027 188.5,319.5 Z"/></g>
<g><path style="opacity:0.035" fill="#a2aab6" d="M 310.5,321.5 C 310.573,323.027 309.906,324.027 308.5,324.5C 308.427,322.973 309.094,321.973 310.5,321.5 Z"/></g>
<g><path style="opacity:0.231" fill="#8d98a7" d="M 190.5,322.5 C 191.906,322.973 192.573,323.973 192.5,325.5C 191.094,325.027 190.427,324.027 190.5,322.5 Z"/></g>
<g><path style="opacity:0.251" fill="#9ea6b3" d="M 196.5,332.5 C 197.674,333.514 198.34,334.847 198.5,336.5C 196.896,335.713 196.229,334.38 196.5,332.5 Z"/></g>
<g><path style="opacity:0.141" fill="#86909f" d="M 303.5,333.5 C 303.25,335.674 302.25,337.341 300.5,338.5C 300.75,336.326 301.75,334.659 303.5,333.5 Z"/></g>
<g><path style="opacity:0.016" fill="#798597" d="M 296.5,345.5 C 295.921,348.331 294.588,350.664 292.5,352.5C 292.998,349.674 294.331,347.34 296.5,345.5 Z"/></g>
<g><path style="opacity:0.063" fill="#7a8698" d="M 203.5,344.5 C 205.588,346.336 206.921,348.669 207.5,351.5C 205.331,349.66 203.998,347.326 203.5,344.5 Z"/></g>
<g><path style="opacity:0.016" fill="#acb2be" d="M 288.5,359.5 C 288.573,361.027 287.906,362.027 286.5,362.5C 286.427,360.973 287.094,359.973 288.5,359.5 Z"/></g>
<g><path style="opacity:0.039" fill="#98a1ae" d="M 212.5,360.5 C 213.906,360.973 214.573,361.973 214.5,363.5C 213.094,363.027 212.427,362.027 212.5,360.5 Z"/></g>
<g><path style="opacity:0.008" fill="#8e98a7" d="M 280.5,372.5 C 280.771,374.38 280.104,375.713 278.5,376.5C 278.66,374.847 279.326,373.514 280.5,372.5 Z"/></g>
<g><path style="opacity:0.055" fill="#798697" d="M 273.5,384.5 C 273.002,387.326 271.669,389.66 269.5,391.5C 270.079,388.669 271.412,386.336 273.5,384.5 Z"/></g>
<g><path style="opacity:0.012" fill="#a8afbb" d="M 234.5,398.5 C 235.906,398.973 236.573,399.973 236.5,401.5C 235.094,401.027 234.427,400.027 234.5,398.5 Z"/></g>
<g><path style="opacity:0.047" fill="#919ba9" d="M 265.5,398.5 C 265.727,400.933 264.727,402.599 262.5,403.5C 263.11,401.566 264.11,399.899 265.5,398.5 Z"/></g>
<g><path style="opacity:0.329" fill="#808c9d" d="M 242.5,411.5 C 244.588,413.336 245.921,415.669 246.5,418.5C 244.331,416.66 242.998,414.326 242.5,411.5 Z"/></g>
</svg>
